<?xml version="1.0" encoding="utf-8"?>
<!-- Generator: Adobe Illustrator 26.0.2, SVG Export Plug-In . SVG Version: 6.00 Build 0)  -->
<svg version="1.1" id="Lager_1" xmlns="http://www.w3.org/2000/svg" xmlns:xlink="http://www.w3.org/1999/xlink" x="0px" y="0px"
	 viewBox="0 0 595.28 841.89" style="enable-background:new 0 0 595.28 841.89;" xml:space="preserve">
<style type="text/css">
	.st0{fill:none;}
	.st1{fill:#E4F6F6;stroke:#11999E;stroke-width:3;stroke-miterlimit:10;}
	.st2{fill:#B3B74F;stroke:#11999E;stroke-width:3;stroke-miterlimit:10;}
	.st3{fill:#FFFFFF;stroke:#11999E;stroke-width:2;stroke-miterlimit:10;}
	.st4{fill:#B3B76F;stroke:#11999E;stroke-width:3;stroke-miterlimit:10;}
	.st5{fill:#FFFFFF;stroke:#11999E;stroke-width:3;stroke-miterlimit:10;}
	.st6{fill:#E4F6F6;stroke:#11999E;stroke-miterlimit:10;}
	.st7{fill:#FFFFFF;stroke:#11999E;stroke-miterlimit:10;}
	.st8{fill:#B3B74F;}
</style>
<rect x="239.92" y="83.96" class="st0" width="203.91" height="167.49"/>
<path class="st1" d="M276.47,172.85c0,0,3.06-61.28,59.74-62.04c56.68-0.77,65.11,62.04,65.11,62.04H276.47z"/>
<path class="st2" d="M300.45,179.08h49.25l-10.37,42.49c0,0-4.54,7.25-11.99,7.58c-7.45,0.33-11.02-6.92-11.02-6.92L300.45,179.08z"
	/>
<path class="st3" d="M316.14,187.14l21.55-1.41c1.5-0.1,2.62,1.37,2.12,2.79l-9.24,26.31c-0.62,1.75-3.04,1.9-3.86,0.23l-12.3-24.9
	C313.73,188.82,314.65,187.24,316.14,187.14z"/>
<path class="st4" d="M276.12,179.08h56.25l-11.84,48.52c0,0-5.18,8.27-13.69,8.65c-8.51,0.38-12.58-7.9-12.58-7.9L276.12,179.08z"/>
<path class="st3" d="M290.77,187.47l26.59-1.75c1.85-0.12,3.23,1.69,2.61,3.44l-11.41,32.47c-0.76,2.16-3.75,2.34-4.76,0.29
	l-15.18-30.72C287.81,189.55,288.93,187.59,290.77,187.47z"/>
<line class="st5" x1="312.25" y1="211.15" x2="303.68" y2="186.59"/>
<path class="st3" d="M317.27,196.86c0,0-3.78-6.43-2.7-8.34c0.7-1.24,5.55-1.28,5.55-1.28"/>
<path class="st1" d="M361.64,178.83l44.36-0.89l2.24-1.66l22.09,8.68c0,0,7.79,12.64-30.26,2.3
	C400.06,187.51,361.64,178.83,361.64,178.83z"/>
<path class="st5" d="M303.68,236.26"/>
<path class="st6" d="M351.61,110.8c0,0-14.15-3.96-26.53,0c0.13,0,1.39-10.21,13.27-9.96S351.61,110.8,351.61,110.8z"/>
<path class="st7" d="M349.7,117.65c0,0,13.24-4.89,21.77,17.92C371.47,135.57,358.2,132.13,349.7,117.65z"/>
<path class="st8" d="M303.68,186.95l13.57-0.68l-2.68,2.26c0,0-1.91,0.19,2.62,8.56c0.08-0.22-4.55,12.95-4.55,12.95L303.68,186.95z
	"/>
</svg>
